<svg width="26" height="26" xmlns="http://www.w3.org/2000/svg" xmlns:xlink="http://www.w3.org/1999/xlink">
 <metadata>image/svg+xml</metadata>

 <g>
  <title>background</title>
  <rect fill="#000000" id="canvas_background" height="28" width="28" y="-1" x="-1"/>
 </g>
 <g>
  <title>Layer 1</title>
  <g id="svg_1" transform="matrix(0.75757574,0,0,0.75757574,2.8791515,-7.9393932) ">
   <path id="svg_2" fill="#FFF" stroke-width="1.32" stroke-miterlimit="4" stroke-linecap="round" stroke="#000" fill-rule="evenodd" d="m14.44,29.5c0.222,1.68 -3.09,4.06 -4.5,5c-1.73,1.16 -1.74,2.7 -3,2.5c-0.602,-0.545 0.817,-2.02 0,-2c-0.58,0 0.19,1.1 -0.5,1.5c-0.58,0 -2.5,0.4 -2.5,-2.5c0,-1.2 3.5,-6.5 3.5,-6.5s0.934,-1.08 1,-2c-0.419,-0.575 -0.258,-1.48 0,-2c0.365,-0.731 1.5,1.5 1.5,1.5l1,0s0.5,-1.5 1.5,-2c0.517,-0.258 0.5,2 0.5,2c6.07,0.578 9.29,4.37 9,16.5l-12.5,0c0,-4.9 4.8,-3.7 4.5,-10.5"/>
   <path id="svg_3" d="m5.5,33.5a0.5,0.5 0 1 1 -1,0a0.5,0.5 0 1 1 1,0z" fill="#000"/>
   <path id="svg_4" d="m9.6058,30.28a1.0281,1.4729 30 0 1 -1.7807,-1.028a1.0281,1.4729 30 0 1 1.7807,1.028z" fill="#000"/>
  </g>
  <g stroke="null" id="svg_5">
   <path stroke="#000" id="svg_6" fill="#FFF" stroke-width="0.8" stroke-miterlimit="4" fill-rule="evenodd" d="m18,14l4,-8l-4,4l0,-6l-3,5.125l-2,-5l-2,5l-3,-5.125l0,6l-4,-4l3,8s2.0349,-2.5 6,-2.5s5,2.5 5,2.5z" stroke-linejoin="round"/>
   <path stroke="#000" fill="#FFF" stroke-width="0.75" stroke-miterlimit="4" stroke-dashoffset="0" d="m5.5,6a1.5,1.5 0 0 1 -3,0a1.5,1.5 0 1 1 3,0z" id="path3804"/>
   <use stroke="null" id="svg_7" x="4" y="-2" width="26" height="26" xlink:href="#path3804"/>
   <use stroke="null" id="svg_8" x="9" y="-2" width="26" height="26" xlink:href="#path3804"/>
   <use stroke="null" id="svg_9" x="0" y="0" width="26" height="26" transform="matrix(-1,0,0,1,26,0) " xlink:href="#path3804"/>
   <use stroke="null" id="svg_10" x="0" y="0" width="26" height="26" transform="matrix(-1,0,0,1,22,-2) " xlink:href="#path3804"/>
  </g>
 </g>
</svg>